<svg xmlns="http://www.w3.org/2000/svg" xmlns:xlink="http://www.w3.org/1999/xlink" viewBox="0,0,256,256" width="64px" height="64px"><g fill="#ff5722" fill-rule="nonzero" stroke="none" stroke-width="1" stroke-linecap="butt" stroke-linejoin="miter" stroke-miterlimit="10" stroke-dasharray="" stroke-dashoffset="0" font-family="none" font-weight="none" font-size="none" text-anchor="none" style="mix-blend-mode: normal"><g transform="scale(3.55556,3.55556)"><path d="M63,19.645c-1.43,2.143 -3.24,4.026 -5.325,5.538c0.02,0.459 0.03,0.921 0.03,1.384c0,14.134 -10.728,30.433 -30.352,30.433c-6.025,0 -13.877,-2.116 -16.353,-4.805c0.836,0.1 1.686,0.15 2.546,0.15c4.999,0 9.6,-1.711 13.249,-4.58c-4.668,-0.086 -8.608,-3.18 -9.966,-7.43c2.124,0.334 4.818,-0.184 4.818,-0.184c0,0 -8.342,-1.436 -8.558,-10.622c2.412,1.402 4.832,1.338 4.832,1.338c0,0 -4.811,-2.97 -4.744,-8.901c0.039,-3.499 1.442,-5.38 1.442,-5.38c9.115,11.255 21.989,11.178 21.989,11.178c0,0 -0.276,-1.598 -0.276,-2.436c0,-5.906 4.775,-10.697 10.667,-10.697c3.068,0 5.84,1.3 7.786,3.379c2.432,-0.482 4.716,-1.372 6.776,-2.597c-0.931,3.737 -4.69,5.918 -4.69,5.918c0,0 3.219,-0.36 6.129,-1.686z"></path></g></g></svg>