<svg xmlns="http://www.w3.org/2000/svg" width="32" height="32">
    <path style="stroke:none;fill-rule:nonzero;fill:#000;fill-opacity:1" d="M16 32a.804.804 0 0 1-.629-.305c-.09-.117-2.27-2.902-4.476-7.015-1.297-2.422-2.336-4.801-3.079-7.067-.941-2.86-1.414-5.554-1.414-8.011C6.402 4.309 10.707 0 16 0c5.293 0 9.602 4.309 9.602 9.602 0 2.457-.477 5.152-1.415 8.011-.746 2.266-1.78 4.645-3.082 7.067-2.207 4.113-4.382 6.898-4.472 7.015a.81.81 0 0 1-.63.305Zm0-30.398c-4.41 0-8 3.585-8 8 0 5.203 2.34 10.66 4.305 14.32A55.9 55.9 0 0 0 16 29.859a54.516 54.516 0 0 0 3.707-5.964C21.664 20.242 24 14.797 24 9.602c0-4.415-3.59-8-8-8Zm0 0"/>
    <path style="stroke:none;fill-rule:nonzero;fill:#000;fill-opacity:1" d="M16 14.398a4.806 4.806 0 0 1-4.8-4.796C11.2 6.953 13.354 4.8 16 4.8s4.8 2.152 4.8 4.8a4.806 4.806 0 0 1-4.8 4.797Zm0-8a3.204 3.204 0 0 0-3.2 3.204c0 1.761 1.434 3.199 3.2 3.199 1.766 0 3.2-1.438 3.2-3.2A3.204 3.204 0 0 0 16 6.399Zm0 0"/>
</svg>
